PathFileType	4	(X/Y/Z)	./resultDataOpenSim/trcMotMarkerGrf/sub10/qtm-05-05.trc
DataRate	CameraRate	NumFrames	NumMarkers	Units	OrigDataRate	OrigDataStartFrame	OrigNumFrames
250.000000	250.000000	9	24	m	250.000000	388	517
Frame#	Time	L.Toe.Tip			R.Toe.Tip			L.Ankle.Lat			R.Ankle.Lat			L.Ankle.Med			R.Ankle.Med			L.Heel			R.Heel			L.Knee.Lat			R.Knee.Lat			L.Knee.Med			R.Knee.Med			L.Thigh.Upper			R.Thigh.Upper			L.ASIS			R.ASIS			V.Sacral			L.Acromium			R.Acromium			C7			L.Elbow			R.Elbow			L.Wrist.Lat			R.Wrist.Lat
		X1	Y1	Z1	X2	Y2	Z2	X3	Y3	Z3	X4	Y4	Z4	X5	Y5	Z5	X6	Y6	Z6	X7	Y7	Z7	X8	Y8	Z8	X9	Y9	Z9	X10	Y10	Z10	X11	Y11	Z11	X12	Y12	Z12	X13	Y13	Z13	X14	Y14	Z14	X15	Y15	Z15	X16	Y16	Z16	X17	Y17	Z17	X18	Y18	Z18	X19	Y19	Z19	X20	Y20	Z20	X21	Y21	Z21	X22	Y22	Z22	X23	Y23	Z23	X24	Y24	Z24

388	1.548	0.50209761	0.1034615	-0.13494622	0.89107459	0.038381363	0.049701832	0.46977914	0.23826245	-0.14638463	0.75152907	0.05683714	0.1004781	0.5030077	0.23353114	-0.069278076	0.76463658	0.079415341	0.013586599	0.42117229	0.27189435	-0.089748611	0.6969081	0.032388675	0.061245124	0.77484853	0.45750153	-0.18605914	0.83699667	0.44932463	0.10837934	0.80384357	0.4179236	-0.071195572	0.82625023	0.45243503	-0.020210893	0.71061509	0.83245611	-0.20349709	0.77817481	0.85869914	0.17079128	0.78285988	0.9405462	-0.14738973	0.83682799	0.94362563	0.089609318	0.61461394	0.96873663	0.0071061402	0.82531807	1.4226308	-0.15452321	0.81392047	1.4158423	0.15748772	0.73780403	1.4484465	-0.00065835487	0.69979634	1.1039345	-0.22692567	0.68534328	1.0918859	0.23961477	0.85481562	0.89375759	-0.24437603	0.80159631	0.95175625	0.40741788
389	1.552	0.51660096	0.10345666	-0.13611187	0.89108674	0.03837934	0.049755544	0.48193663	0.23765864	-0.14674398	0.7515004	0.057003492	0.10054427	0.51527965	0.23317385	-0.069691951	0.76468464	0.079675856	0.013750825	0.43272418	0.27026624	-0.089900544	0.69689254	0.032608188	0.061208745	0.78483867	0.46007829	-0.18645006	0.83766656	0.44951975	0.10907472	0.81409343	0.42061991	-0.071706524	0.82681929	0.45258769	-0.019477049	0.71719912	0.83444299	-0.20417104	0.78310603	0.85981361	0.17059597	0.78857584	0.94248235	-0.14729125	0.84171193	0.94524085	0.089461252	0.61955898	0.9701124	0.006376051	0.82869292	1.4245392	-0.15452843	0.81812997	1.4174072	0.15769423	0.74173638	1.4499501	-0.0003527506	0.70148217	1.1065178	-0.22707025	0.69204271	1.0927184	0.2413616	0.85551399	0.89541311	-0.24662008	0.81222172	0.95438776	0.40813191
390	1.556	0.5313018	0.10327967	-0.13727993	0.89110986	0.038375259	0.049806056	0.49420539	0.2368163	-0.14714793	0.75152034	0.057184398	0.10058102	0.5276261	0.23261967	-0.070136972	0.76478048	0.079953294	0.013883442	0.44438533	0.26839738	-0.090167119	0.69689321	0.032829399	0.061137286	0.79474068	0.46265862	-0.18678925	0.83832604	0.44970608	0.10976044	0.82404304	0.4233216	-0.07215751	0.82721201	0.4527535	-0.018795636	0.72353675	0.83638863	-0.20489137	0.78799722	0.86087405	0.17043533	0.79432043	0.94435706	-0.14716334	0.84657548	0.94674366	0.089284997	0.62432171	0.97165379	0.005861104	0.83204296	1.4263744	-0.15454052	0.82230683	1.4189059	0.15788987	0.74565088	1.4513833	8.0661726e-06	0.70299815	1.1090328	-0.22713121	0.6987266	1.0935907	0.24323529	0.85623753	0.89705658	-0.24886374	0.82283376	0.95698698	0.40878522
391	1.56	0.54617155	0.10296264	-0.13842243	0.8911469	0.038369223	0.049850687	0.50657959	0.23574336	-0.14759373	0.75163424	0.057370136	0.10057388	0.54003711	0.23188057	-0.070596396	0.76493792	0.08024176	0.013964222	0.45611848	0.26627561	-0.090477745	0.69692198	0.033059701	0.06102419	0.80456091	0.46522889	-0.18709488	0.83896965	0.4498846	0.11043217	0.83373376	0.42601147	-0.072565242	0.82750067	0.45293338	-0.018145059	0.7297015	0.83829161	-0.2056328	0.79284159	0.86188013	0.17030749	0.80012495	0.9461655	-0.1470432	0.85142578	0.94813783	0.089108834	0.62888353	0.97326053	0.0055315116	0.83536956	1.4281322	-0.15455345	0.82645563	1.4203343	0.15808372	0.749557	1.4527406	0.00042648866	0.70450065	1.1114573	-0.22722594	0.70537774	1.0944832	0.2452296	0.85699668	0.89866825	-0.25109322	0.83343764	0.95955258	0.40937174
392	1.564	0.56118126	0.10253133	-0.1395132	0.89119763	0.038363091	0.049886305	0.51903306	0.23444232	-0.14806796	0.75181681	0.057550744	0.1005295	0.55250375	0.23096186	-0.071059134	0.76512308	0.080535324	0.014012141	0.46790063	0.26390285	-0.090816423	0.69697268	0.033307761	0.060883309	0.81433993	0.46775074	-0.18743022	0.83959986	0.45005841	0.11109122	0.84329701	0.42864906	-0.072968542	0.82790548	0.4531234	-0.017488143	0.73594002	0.84012693	-0.20631196	0.79763313	0.86283057	0.17020942	0.80603252	0.94791332	-0.14694571	0.8562694	0.94942894	0.088946517	0.63354241	0.97479782	0.0052074054	0.83867955	1.4298138	-0.15456587	0.83058668	1.4216925	0.1582857	0.75346298	1.454019	0.00084551003	0.70609879	1.1137782	-0.22742088	0.71202651	1.0953148	0.24725006	0.85778985	0.90022381	-0.25328306	0.84404002	0.9620862	0.40988655
393	1.568	0.57639276	0.10199871	-0.14058283	0.89125892	0.038358769	0.049909973	0.53154041	0.23291474	-0.14855747	0.75198748	0.057726672	0.10046863	0.56504244	0.22985766	-0.071536514	0.76530176	0.080829633	0.014050432	0.47973854	0.26129214	-0.091206772	0.69703261	0.033580378	0.060731524	0.82409483	0.4701806	-0.18783537	0.84022277	0.45023109	0.11174258	0.85281709	0.43119826	-0.07338127	0.82858732	0.4533069	-0.016787382	0.74247951	0.84186589	-0.20685112	0.80236326	0.86372114	0.170136	0.81199685	0.94959939	-0.14686622	0.86110769	0.95061892	0.088799856	0.63878995	0.97615848	0.0046288555	0.84197857	1.4314225	-0.15458271	0.83470537	1.4229828	0.15849471	0.7573671	1.45522	0.0012031888	0.70782728	1.1159925	-0.2277206	0.71871049	1.0960013	0.24919363	0.85860527	0.90171951	-0.25542574	0.85464385	0.96459121	0.41033112
394	1.572	0.591889	0.10136101	-0.14168048	0.89132534	0.038355574	0.049922279	0.54410813	0.23116691	-0.14906606	0.75209351	0.057911371	0.10040298	0.57772113	0.22855436	-0.072067369	0.76547512	0.081122588	0.014079557	0.49165156	0.25845342	-0.091663779	0.69709582	0.033882744	0.060569909	0.83378252	0.4724949	-0.18828343	0.84084513	0.45040465	0.11239304	0.86235271	0.43364721	-0.073807627	0.82959609	0.45344993	-0.016008057	0.74928477	0.84350923	-0.20726365	0.80702297	0.86454444	0.17008654	0.81792655	0.95121376	-0.14679759	0.86593667	0.95170768	0.088668912	0.64469563	0.97727377	0.0037164086	0.84526868	1.4329571	-0.15460715	0.83880729	1.4242057	0.15870058	0.76126474	1.4563468	0.0014932815	0.70963955	1.1181046	-0.22807927	0.72544154	1.0965323	0.25103983	0.85944117	0.90318013	-0.25754543	0.8652435	0.96706747	0.41071397
395	1.576	0.60760974	0.10059822	-0.14278984	0.89138978	0.038350411	0.049931675	0.55678429	0.22920573	-0.1496242	0.75213918	0.058118773	0.10033167	0.59059229	0.22705134	-0.072679195	0.76565804	0.081414369	0.01409191	0.50365422	0.2553879	-0.092182292	0.69715489	0.034212601	0.060385298	0.84335132	0.47469617	-0.1887301	0.8414699	0.45057775	0.1130483	0.87199903	0.4360081	-0.074278166	0.83091621	0.4535198	-0.015164807	0.75613584	0.84508329	-0.20763506	0.81160573	0.86529385	0.1700649	0.82379301	0.95274922	-0.14673224	0.87075077	0.95269529	0.088555623	0.65073519	0.97817165	0.0026621507	0.84855221	1.4344119	-0.15463632	0.8428859	1.4253582	0.1588957	0.76515624	1.4574015	0.0017442519	0.71146455	1.1201227	-0.22844493	0.73222676	1.0969562	0.25282654	0.8603103	0.90462446	-0.25966849	0.87582904	0.96950914	0.41104268
396	1.58	0.6233693	0.099693037	-0.14383599	0.89144621	0.038341775	0.049950827	0.56963703	0.2270323	-0.15028238	0.75215443	0.058348789	0.10025225	0.60357497	0.2253796	-0.073335821	0.76585055	0.081704779	0.014088792	0.51575098	0.25209555	-0.092753242	0.69717349	0.034554401	0.06017597	0.8527994	0.47679988	-0.1891699	0.84208676	0.45074511	0.11370335	0.88177588	0.43830627	-0.074827456	0.83231904	0.4535433	-0.014364747	0.76289936	0.84660544	-0.20801993	0.81610632	0.86596691	0.17007175	0.82964213	0.95420498	-0.14665515	0.87554998	0.95358036	0.088461312	0.65642317	0.97897257	0.0016806332	0.85183669	1.4357823	-0.15466494	0.84694328	1.4264379	0.15907799	0.76904456	1.4583798	0.0019702357	0.71325737	1.1220553	-0.22878801	0.73908104	1.0973205	0.25458171	0.86121638	0.90603855	-0.26179968	0.88639303	0.97191017	0.41131498
